HIERARCHY
ROOT Hips
{
	OFFSET 0.00000 0.00000 0.00000
	CHANNELS 6 Xposition Yposition Zposition Zrotation Yrotation Xrotation 
	JOINT LHipJoint
	{
		OFFSET 0 0 0
		CHANNELS 3 Zrotation Yrotation Xrotation
		JOINT LeftUpLeg
		{
			OFFSET 1.61328 -1.70571 0.84375
			CHANNELS 3 Zrotation Yrotation Xrotation
			JOINT LeftLeg
			{
				OFFSET 2.32400 -6.38513 0.00000
				CHANNELS 3 Zrotation Yrotation Xrotation
				JOINT LeftFoot
				{
					OFFSET 2.58843 -7.11166 0.00000
					CHANNELS 3 Zrotation Yrotation Xrotation
					JOINT LeftToeBase
					{
						OFFSET 0.17200 -0.47257 2.47970
						CHANNELS 3 Zrotation Yrotation Xrotation
						End Site
						{
							OFFSET 0.00000 -0.00000 1.26912
						}
					}
				}
			}
		}
	}
	JOINT RHipJoint
	{
		OFFSET 0 0 0
		CHANNELS 3 Zrotation Yrotation Xrotation
		JOINT RightUpLeg
		{
			OFFSET -1.49930 -1.70570 0.84375
			CHANNELS 3 Zrotation Yrotation Xrotation
			JOINT RightLeg
			{
				OFFSET -2.30458 -6.33178 0.00000
				CHANNELS 3 Zrotation Yrotation Xrotation
				JOINT RightFoot
				{
					OFFSET -2.62261 -7.20556 0.00000
					CHANNELS 3 Zrotation Yrotation Xrotation
					JOINT RightToeBase
					{
						OFFSET -0.18709 -0.51403 2.51340
						CHANNELS 3 Zrotation Yrotation Xrotation
						End Site
						{
							OFFSET -0.00000 -0.00000 1.28858
						}
					}
				}
			}
		}
	}
	JOINT LowerBack
	{
		OFFSET 0 0 0
		CHANNELS 3 Zrotation Yrotation Xrotation
		JOINT Spine
		{
			OFFSET -0.03798 2.19274 -0.19881
			CHANNELS 3 Zrotation Yrotation Xrotation
			JOINT Spine1
			{
				OFFSET -0.00024 2.19460 0.05248
				CHANNELS 3 Zrotation Yrotation Xrotation
				JOINT Neck
				{
					OFFSET 0 0 0
					CHANNELS 3 Zrotation Yrotation Xrotation
					JOINT Neck1
					{
						OFFSET -0.00746 1.82323 0.17286
						CHANNELS 3 Zrotation Yrotation Xrotation
						JOINT Head
						{
							OFFSET 0.11826 1.82121 -0.27841
							CHANNELS 3 Zrotation Yrotation Xrotation
							End Site
							{
								OFFSET 0.03496 1.85543 -0.11495
							}
						}
					}
				}
				JOINT LeftShoulder
				{
					OFFSET 0 0 0
					CHANNELS 3 Zrotation Yrotation Xrotation
					JOINT LeftArm
					{
						OFFSET 3.71926 0.78840 0.25473
						CHANNELS 3 Zrotation Yrotation Xrotation
						JOINT LeftForeArm
						{
							OFFSET 5.37587 -0.00000 0.00000
							CHANNELS 3 Zrotation Yrotation Xrotation
							JOINT LeftHand
							{
								OFFSET 3.35977 -0.00000 0.00000
								CHANNELS 3 Zrotation Yrotation Xrotation
								JOINT LeftFingerBase
								{
									OFFSET 0 0 0
									CHANNELS 3 Zrotation Yrotation Xrotation
									JOINT LeftHandIndex1
									{
										OFFSET 0.56186 -0.00000 0.00000
										CHANNELS 3 Zrotation Yrotation Xrotation
										End Site
										{
											OFFSET 0.45299 -0.00000 0.00000
										}
									}
								}
								JOINT LThumb
								{
									OFFSET 0 0 0
									CHANNELS 3 Zrotation Yrotation Xrotation
									End Site
									{
										OFFSET 0.45990 -0.00000 0.45990
									}
								}
							}
						}
					}
				}
				JOINT RightShoulder
				{
					OFFSET 0 0 0
					CHANNELS 3 Zrotation Yrotation Xrotation
					JOINT RightArm
					{
						OFFSET -3.65136 0.56074 0.01624
						CHANNELS 3 Zrotation Yrotation Xrotation
						JOINT RightForeArm
						{
							OFFSET -5.22819 -0.00000 0.00000
							CHANNELS 3 Zrotation Yrotation Xrotation
							JOINT RightHand
							{
								OFFSET -3.40764 -0.00000 0.00000
								CHANNELS 3 Zrotation Yrotation Xrotation
								JOINT RightFingerBase
								{
									OFFSET 0 0 0
									CHANNELS 3 Zrotation Yrotation Xrotation
									JOINT RightHandIndex1
									{
										OFFSET -0.58325 -0.00000 0.00000
										CHANNELS 3 Zrotation Yrotation Xrotation
										End Site
										{
											OFFSET -0.47024 -0.00000 0.00000
										}
									}
								}
								JOINT RThumb
								{
									OFFSET 0 0 0
									CHANNELS 3 Zrotation Yrotation Xrotation
									End Site
									{
										OFFSET -0.47742 -0.00000 0.47742
									}
								}
							}
						}
					}
				}
			}
		}
	}
}
MOTION
Frames: 10
Frame Time: .0083333
48.7765 16.7812 -7.1737 0 0 0 0 0 0 -21 0 0 0 0 0 0 0 0 0 0 0 0 0 0 21 0 0 0 0 0 0 0 0 0 0 0 0 0 0 0 0 0 0 0 0 0 0 -16 0 0 21 0 0 11 0 0 0 -8 0 0 0 0 0 0 0 0 0 0 0 0 0 0 0 0 0 0 0 0 8 0 0 0 0 0 0 0 0 0 0 0 0 0 0 0 0 0
48.7765 16.7812 -7.1737 -113.5350 -88.6324 113.7730 0.0000 0.0000 0.0000 -18.4500 0.4944 -2.7351 1.0135 6.4052 17.9647 0.6678 4.6956 -17.8530 0.0066 -0.5257 -1.4446 0.0000 0.0000 0.0000 20.6015 2.5221 -7.4236 -2.6559 -10.1160 29.3534 -1.8386 -1.4562 -26.1943 -0.7213 -5.4271 15.1309 -0.9971 -0.0805 -4.0310 0.7341 -0.0933 2.7514 1.3114 -0.1014 5.1114 -6.7967 -7.1337 -7.1726 12.4038 -9.7610 3.4795 4.3245 -4.5862 3.1692 -0.0000 0.0000 0.0000 -89.7082 -4.4112 23.1824 12.9480 -21.2109 -2.4344 -0.0000 0.0000 -5.6536 17.2672 15.5469 4.7625 -7.1250 0.0000 -0.0000 -9.7771 45.9896 -0.2411 -0.0000 0.0000 0.0000 87.6838 1.8548 21.8555 -13.0027 21.2911 -2.4543 0.0000 -0.0000 -0.5312 -22.8386 2.8096 -1.1826 7.1250 -0.0000 -0.0000 2.8759 -26.9290 1.2631
48.7768 16.7814 -7.1749 -112.8540 -88.6113 113.0700 0.0000 0.0000 0.0000 -18.4116 0.5269 -2.7477 1.0157 6.4118 17.9841 0.6640 4.7021 -17.8152 0.0086 -0.6000 -1.6489 0.0000 0.0000 0.0000 20.6416 2.5292 -7.3793 -2.6506 -10.1067 29.3229 -1.8405 -1.4854 -26.2186 -0.7181 -5.4152 15.0965 -0.9673 -0.0724 -4.0329 0.7270 -0.0840 2.7533 1.2881 -0.0956 5.1141 -6.8090 -7.1544 -7.0440 12.4436 -9.7845 3.3493 4.3429 -4.6048 3.1143 -0.0000 -0.0000 0.0000 -89.6971 -4.4036 23.1924 12.9591 -21.2272 -2.4384 -0.0000 0.0000 -5.6514 17.2597 15.5411 4.7586 -7.1250 0.0000 -0.0000 -9.7824 45.9826 -0.2395 -0.0000 -0.0000 0.0000 87.7371 1.8177 21.8313 -13.0154 21.3098 -2.4589 0.0000 -0.0000 -0.5393 -22.8483 2.7806 -1.1710 7.1250 -0.0000 -0.0000 2.8688 -26.9602 1.2578
48.7783 16.7818 -7.1746 -112.7900 -88.6260 113.0080 0.0000 0.0000 0.0000 -18.4269 0.5121 -2.7637 1.0182 6.4197 18.0071 0.6653 4.6907 -17.8224 0.0077 -0.5655 -1.5539 0.0000 0.0000 0.0000 20.6172 2.4909 -7.3836 -2.6451 -10.0971 29.2917 -1.8347 -1.4758 -26.1743 -0.7160 -5.4075 15.0746 -0.9688 -0.0713 -4.0367 0.7164 -0.0817 2.7358 1.2780 -0.0940 5.0978 -6.8405 -7.1665 -6.9164 12.4885 -9.7928 3.1999 4.3673 -4.6164 3.0536 -0.0000 0.0000 0.0000 -89.6942 -4.3494 23.2246 12.9940 -21.2784 -2.4511 -0.0000 0.0000 -5.6751 17.1891 15.5916 4.7529 -7.1250 0.0000 -0.0000 -9.8608 46.0251 -0.2519 -0.0000 0.0000 0.0000 87.7752 1.7751 21.8158 -13.0093 21.3008 -2.4567 0.0000 -0.0000 -0.5363 -22.8430 2.8216 -1.1879 7.1250 -0.0000 -0.0000 2.8724 -26.9159 1.2624
48.7786 16.7820 -7.1772 -111.9220 -88.5754 112.1240 0.0000 0.0000 0.0000 -18.3493 0.5317 -2.7857 1.0216 6.4301 18.0376 0.6640 4.6810 -17.8019 0.0086 -0.5992 -1.6465 0.0000 0.0000 0.0000 20.7038 2.5395 -7.3279 -2.6385 -10.0854 29.2539 -1.8365 -1.5447 -26.2137 -0.7135 -5.3982 15.0478 -0.9381 -0.0657 -4.0491 0.7362 -0.0770 2.7341 1.2818 -0.0910 5.1030 -6.8884 -7.1905 -6.8325 12.5093 -9.8201 3.1411 4.3829 -4.6342 3.0284 0.0000 0.0000 0.0000 -89.7071 -4.3167 23.2501 13.0017 -21.2898 -2.4539 -0.0000 0.0000 -5.7011 17.2198 15.5726 4.7563 -7.1250 0.0000 -0.0000 -9.8274 46.0096 -0.2473 0.0000 0.0000 0.0000 87.7985 1.7238 21.8341 -13.0231 21.3211 -2.4617 0.0000 -0.0000 -0.5614 -22.8608 2.8021 -1.1808 7.1250 -0.0000 -0.0000 2.8590 -26.9366 1.2551
48.7789 16.7821 -7.1795 -111.2950 -88.5285 111.4780 0.0000 0.0000 0.0000 -18.2818 0.5409 -2.7967 1.0251 6.4408 18.0689 0.6634 4.6777 -17.7933 0.0091 -0.6159 -1.6926 0.0000 0.0000 0.0000 20.7793 2.5776 -7.2718 -2.6318 -10.0736 29.2155 -1.8376 -1.5997 -26.2431 -0.7120 -5.3925 15.0316 -0.9063 -0.0568 -4.0560 0.7493 -0.0677 2.7383 1.2783 -0.0857 5.1109 -6.9145 -7.2125 -6.7501 12.5304 -9.8438 3.0484 4.3958 -4.6509 2.9921 0.0000 0.0000 0.0000 -89.7125 -4.2947 23.2767 13.0139 -21.3076 -2.4583 -0.0000 0.0000 -5.7168 17.2176 15.5844 4.7591 -7.1250 0.0000 -0.0000 -9.8327 46.0214 -0.2503 0.0000 0.0000 0.0000 87.8359 1.6918 21.8192 -13.0284 21.3288 -2.4636 0.0000 -0.0000 -0.5669 -22.8697 2.8025 -1.1815 7.1250 -0.0000 -0.0000 2.8522 -26.9360 1.2522
48.7791 16.7822 -7.1819 -110.7220 -88.4750 110.8820 0.0000 0.0000 0.0000 -18.2069 0.5463 -2.8111 1.0302 6.4562 18.1138 0.6639 4.6712 -17.7944 0.0094 -0.6277 -1.7249 0.0000 0.0000 0.0000 20.8638 2.6222 -7.2070 -2.6238 -10.0596 29.1700 -1.8384 -1.6618 -26.2731 -0.7109 -5.3885 15.0199 -0.8716 -0.0466 -4.0638 0.7656 -0.0572 2.7490 1.2766 -0.0798 5.1262 -6.9356 -7.2343 -6.6914 12.5438 -9.8668 2.9653 4.4048 -4.6663 2.9617 0.0000 -0.0000 0.0000 -89.7215 -4.2816 23.2995 13.0223 -21.3199 -2.4614 -0.0000 0.0000 -5.7277 17.2166 15.6028 4.7643 -7.1250 0.0000 -0.0000 -9.8385 46.0401 -0.2550 0.0000 -0.0000 0.0000 87.8731 1.6703 21.8007 -13.0341 21.3371 -2.4657 0.0000 -0.0000 -0.5716 -22.8752 2.8012 -1.1812 7.1250 -0.0000 -0.0000 2.8480 -26.9373 1.2502
48.7795 16.7823 -7.1841 -110.2110 -88.4244 110.3510 0.0000 0.0000 0.0000 -18.1364 0.5532 -2.8250 1.0347 6.4699 18.1541 0.6644 4.6627 -17.7943 0.0097 -0.6372 -1.7509 0.0000 0.0000 0.0000 20.9428 2.6628 -7.1484 -2.6166 -10.0468 29.1285 -1.8392 -1.7166 -26.3002 -0.7106 -5.3874 15.0170 -0.8372 -0.0363 -4.0729 0.7803 -0.0466 2.7634 1.2735 -0.0739 5.1462 -6.9514 -7.2549 -6.6477 12.5509 -9.8881 2.8882 4.4105 -4.6803 2.9349 -0.0000 -0.0000 0.0000 -89.7333 -4.2764 23.3165 13.0260 -21.3254 -2.4627 -0.0000 0.0000 -5.7314 17.2236 15.6206 4.7716 -7.1250 0.0000 -0.0000 -9.8368 46.0592 -0.2596 -0.0000 -0.0000 0.0000 87.9110 1.6560 21.7812 -13.0411 21.3474 -2.4682 0.0000 -0.0000 -0.5784 -22.8750 2.8018 -1.1815 7.1250 -0.0000 -0.0000 2.8481 -26.9366 1.2504
48.7802 16.7825 -7.1856 -109.8300 -88.3859 109.9560 0.0000 0.0000 0.0000 -18.0827 0.5598 -2.8393 1.0385 6.4812 18.1871 0.6650 4.6529 -17.7935 0.0099 -0.6435 -1.7684 0.0000 0.0000 0.0000 21.0016 2.6888 -7.1061 -2.6105 -10.0361 29.0937 -1.8388 -1.7578 -26.3140 -0.7095 -5.3834 15.0055 -0.8082 -0.0277 -4.0838 0.7903 -0.0377 2.7780 1.2684 -0.0690 5.1674 -6.9647 -7.2720 -6.6138 12.5549 -9.9046 2.8139 4.4149 -4.6915 2.9098 -0.0000 0.0000 0.0000 -89.7475 -4.2718 23.3256 13.0277 -21.3278 -2.4634 -0.0000 0.0000 -5.7288 17.2299 15.6322 4.7769 -7.1250 0.0000 -0.0000 -9.8341 46.0719 -0.2627 -0.0000 0.0000 0.0000 87.9487 1.6447 21.7645 -13.0482 21.3578 -2.4708 0.0000 -0.0000 -0.5863 -22.8694 2.8099 -1.1845 7.1250 -0.0000 -0.0000 2.8523 -26.9280 1.2528
48.7814 16.7828 -7.1865 -109.5750 -88.3618 109.6930 0.0000 0.0000 0.0000 -18.0490 0.5634 -2.8545 1.0412 6.4894 18.2112 0.6655 4.6433 -17.7932 0.0100 -0.6442 -1.7703 0.0000 0.0000 0.0000 21.0371 2.6998 -7.0833 -2.6058 -10.0278 29.0667 -1.8375 -1.7806 -26.3140 -0.7090 -5.3814 14.9997 -0.7856 -0.0207 -4.0983 0.7944 -0.0301 2.7929 1.2607 -0.0648 5.1910 -6.9718 -7.2876 -6.5921 12.5523 -9.9190 2.7454 4.4159 -4.7013 2.8875 0.0000 0.0000 0.0000 -89.7638 -4.2687 23.3260 13.0279 -21.3281 -2.4634 -0.0000 0.0000 -5.7171 17.2343 15.6377 4.7798 -7.1250 0.0000 -0.0000 -9.8314 46.0778 -0.2641 0.0000 0.0000 0.0000 87.9860 1.6384 21.7521 -13.0550 21.3677 -2.4733 0.0000 -0.0000 -0.5977 -22.8599 2.8199 -1.1882 7.1250 -0.0000 -0.0000 2.8594 -26.9174 1.2566
